PathFileType	4	(X/Y/Z)	C:\Users\Biomechanik\SynologyDrive\AlexP\Athlete_03\Athlete_3_25_03_31\Deadlift_35kg_02\marker_experimental.trc
DataRate	CameraRate	NumFrames	NumMarkers	Units	OrigDataRate	OrigDataStartFrame	OrigNumFrames
200.000000	200.000000	4	55	mm	200.000000	991	1983
Frame#	Time	BL			BR			GLAB			RFHD			LFHD			C7			T6			SPINMOL			SPINM2			SPINM3			T12			BELTOL			BELT2			BELT3			SACROL			SACR2			SACR3			LTHOL			LTH2			LTH3			LSHAOL			LSHA2			LSHA3			LHEE			LTOE			LM5			RTHOL			RTH2			RTH3			RSHAOL			RSHA2			RSHA3			RHEE			RTOE			RM5			STRN			XIPH			LACR			LUAOL			LUA2			LUA3			LLAOL			LLA2			LLA3			LWRR			LWRU			RACR			RUAOL			RUA2			RUA3			RLAOL			RLA2			RLA3			RWRR			RWRU			
		X1	Y1	Z1	X2	Y2	Z2	X3	Y3	Z3	X4	Y4	Z4	X5	Y5	Z5	X6	Y6	Z6	X7	Y7	Z7	X8	Y8	Z8	X9	Y9	Z9	X10	Y10	Z10	X11	Y11	Z11	X12	Y12	Z12	X13	Y13	Z13	X14	Y14	Z14	X15	Y15	Z15	X16	Y16	Z16	X17	Y17	Z17	X18	Y18	Z18	X19	Y19	Z19	X20	Y20	Z20	X21	Y21	Z21	X22	Y22	Z22	X23	Y23	Z23	X24	Y24	Z24	X25	Y25	Z25	X26	Y26	Z26	X27	Y27	Z27	X28	Y28	Z28	X29	Y29	Z29	X30	Y30	Z30	X31	Y31	Z31	X32	Y32	Z32	X33	Y33	Z33	X34	Y34	Z34	X35	Y35	Z35	X36	Y36	Z36	X37	Y37	Z37	X38	Y38	Z38	X39	Y39	Z39	X40	Y40	Z40	X41	Y41	Z41	X42	Y42	Z42	X43	Y43	Z43	X44	Y44	Z44	X45	Y45	Z45	X46	Y46	Z46	X47	Y47	Z47	X48	Y48	Z48	X49	Y49	Z49	X50	Y50	Z50	X51	Y51	Z51	X52	Y52	Z52	X53	Y53	Z53	X54	Y54	Z54	X55	Y55	Z55	

992	4.955	2227.41259765625	724.4578857421876	374.7604370117191	207.7520751953124	693.0899047851562	328.4471740722657	1188.527954101562	1600.97021484375	356.7412414550784	1124.897094726562	1631.216552734375	311.5307922363284	1259.72900390625	1627.426025390625	313.478454589844	1196.161254882812	1434.104614257812	117.2879943847658	1205.805908203125	1256.559936523438	96.30930328369163	1228.7919921875	1225.115356445312	97.76417541503929	1179.475463867188	1215.336791992188	93.01307678222678	1214.619262695312	1161.337524414062	108.7728271484377	1212.370239257812	1112.870483398438	123.0990524291994	1227.91064453125	1087.80078125	100.8374328613284	1177.81201171875	1084.24462890625	100.8184814453127	1208.066040039062	1024.825927734375	95.03739166259788	1232.304443359375	964.6149902343751	92.05635833740257	1180.879516601562	962.3799438476564	93.62900543212912	1208.129760742188	905.5870971679689	73.08721160888695	1393.03857421875	684.5740966796876	186.902282714844	1360.349609375	630.1498413085939	138.2950592041018	1379.002563476562	624.3149414062501	184.5740966796878	1389.258911132812	326.8677368164063	170.4342346191409	1378.295288085938	263.9428100585938	122.5534133911135	1384.4951171875	265.0491027832032	172.5836639404299	1304.15673828125	68.92437744140634	108.3341293334963	1309.101928710938	47.67830276489266	323.9688110351565	1412.207885742188	29.65394592285165	279.5990295410159	1023.63720703125	696.1046752929689	166.988723754883	1010.308227539062	639.6985473632814	222.0636444091799	1029.961669921875	635.4984130859376	176.1092224121096	1020.578369140625	342.0033264160157	150.2073059082033	1018.613403320312	271.8091125488282	184.9207916259768	1031.977294921875	281.0722656250001	138.4175872802736	1124.248657226562	61.52565765380866	111.2905654907229	1102.783081054688	47.05114746093757	325.1894226074221	1005.626281738281	39.30040359497077	268.8047180175783	1197.03125	1368.754638671875	303.5305480957034	1198.35498046875	1239.704956054688	358.8483581542971	1374.6025390625	1401.556030273438	217.1218872070315	1467.477905273438	1257.878662109375	290.2884826660159	1486.738891601562	1196.9609375	305.9191894531253	1444.094604492188	1211.080078125	329.8491210937503	1486.411743164062	995.6936645507814	357.6972961425784	1513.667358398438	931.6701049804689	319.5379638671878	1491.681274414062	934.3220825195314	364.775329589844	1493.967895507812	828.8659057617189	389.626159667969	1423.036499023438	817.0841674804689	353.3876647949222	1025.231811523438	1395.963500976562	222.6607818603518	935.9005737304686	1243.491455078125	268.104461669922	951.4844970703124	1189.918823242188	305.361541748047	916.3730468749999	1180.489868164062	267.6752319335939	922.1417846679685	969.77685546875	320.6784667968752	922.3972167968749	916.27001953125	379.3059692382814	918.2834472656249	907.8546752929688	330.3938903808595	919.3003540039061	822.6890869140625	373.8595275878908	990.7216186523436	798.5347900390626	337.5556640625002	
993	4.96	2227.4619140625	724.4374389648439	374.8422546386723	207.748809814453	693.0925903320312	328.5917053222657	1188.513427734375	1601.075805664062	356.6524658203127	1124.87744140625	1631.294311523438	311.4105529785159	1259.70751953125	1627.486572265625	313.362487792969	1196.163330078125	1434.083374023438	117.2849502563479	1205.808837890625	1256.519287109375	96.34360504150413	1228.794189453125	1225.067016601562	97.80902099609398	1179.474853515625	1215.287963867188	93.05905151367209	1214.613403320312	1161.296630859375	108.8465805053713	1212.378051757812	1112.850952148438	123.173652648926	1227.918334960938	1087.777587890625	100.9453659057619	1177.822265625	1084.225830078125	100.901679992676	1208.08544921875	1024.808715820312	95.1120300292971	1232.30712890625	964.6020507812501	92.17261505126976	1180.88330078125	962.3679199218751	93.73563385009787	1208.144653320312	905.5801391601564	73.20094299316429	1393.009887695312	684.5808105468751	187.0415802001956	1360.32666015625	630.1582641601564	138.4262390136721	1378.9833984375	624.3170776367189	184.7027893066409	1389.245971679688	326.8815612792969	170.5054931640628	1378.291870117188	263.9667053222657	122.6095046997073	1384.487182617188	265.0659179687501	172.6356658935549	1304.148315429688	68.93766021728524	108.3408966064456	1309.09814453125	47.67770767211922	323.9707336425784	1412.210815429688	29.67262840271005	279.5841979980472	1023.621398925781	696.1053466796876	167.0523529052736	1010.286560058594	639.7106933593751	222.0998229980471	1029.943237304688	635.4948120117189	176.1645355224611	1020.565673828125	342.0020751953126	150.2353210449221	1018.589294433594	271.8057861328126	184.9356536865236	1031.962524414062	281.0721435546876	138.4365692138674	1124.25390625	61.51839447021491	111.3024215698244	1102.781860351562	47.05074310302741	325.1895141601565	1005.62109375	39.30910110473639	268.8038635253908	1196.980712890625	1368.755004882812	303.5266113281252	1198.2783203125	1239.707763671875	358.8598327636721	1374.575561523438	1401.53857421875	217.1690673828128	1467.48974609375	1257.841552734375	290.3288269042972	1486.739135742188	1196.916870117188	305.9329528808597	1444.125244140625	1211.057250976562	329.8998107910159	1486.432250976562	995.6710815429689	357.7679748535159	1513.679321289062	931.6405639648439	319.6132507324222	1491.702270507812	934.3045043945314	364.8581848144534	1493.981079101562	828.8414306640626	389.7191162109378	1423.04833984375	817.0608520507814	353.4904479980472	1025.212280273438	1395.950317382812	222.5677185058596	935.8338623046874	1243.477661132812	267.9938354492189	951.4200439453124	1189.911743164062	305.2604370117189	916.3150634765624	1180.4775390625	267.5635070800783	922.1026611328123	969.7380981445312	320.6226196289064	922.3525390624999	916.3131103515625	379.3252868652345	918.2616577148436	907.8238525390625	330.3700256347658	919.3009643554686	822.685546875	373.889617919922	990.7342529296874	798.5288085937501	337.610076904297	
994	4.965	2227.5126953125	724.4188232421876	374.9250488281254	207.7464447021484	693.0969848632812	328.7414245605469	1188.493530273438	1601.18212890625	356.5652770996096	1124.849853515625	1631.372192382812	311.2910766601565	1259.682250976562	1627.548217773438	313.2494812011721	1196.162353515625	1434.065307617188	117.2823867797854	1205.809692382812	1256.481567382812	96.37666320800804	1228.794555664062	1225.021484375	97.85242462158226	1179.47216796875	1215.242065429688	93.10264587402365	1214.605590820312	1161.258056640625	108.9180603027346	1212.384765625	1112.833251953125	123.2461471557619	1227.924560546875	1087.759033203125	101.0499649047854	1177.831420898438	1084.209106445312	100.9823379516604	1208.103637695312	1024.793579101562	95.18767547607445	1232.308837890625	964.5932006835939	92.28518676757835	1180.887084960938	962.3586425781251	93.83379364013693	1208.15966796875	905.5776367187501	73.30903625488304	1392.97802734375	684.5912475585939	187.1793060302737	1360.307983398438	630.1671752929689	138.5521697998049	1378.965698242188	624.3195800781251	184.8280487060549	1389.233032226562	326.8948364257813	170.5737609863284	1378.28857421875	263.9896850585938	122.6631774902346	1384.4794921875	265.0823974609376	172.6847229003909	1304.140625	68.95046234130868	108.3470916748049	1309.094360351562	47.67700195312508	323.9725646972659	1412.212036132812	29.6878032684327	279.5733337402347	1023.606689453125	696.1052246093751	167.1113739013674	1010.264831542969	639.7252197265626	222.1308441162111	1029.924438476562	635.4906616210939	176.217971801758	1020.552001953125	342.0000000000001	150.2630462646486	1018.566711425781	271.8017272949219	184.9508056640627	1031.947631835938	281.0711669921876	138.4556121826174	1124.258911132812	61.51084136962898	111.3141784667971	1102.78076171875	47.05086517333991	325.1892089843752	1005.615356445312	39.31779861450202	268.802703857422	1196.926147460938	1368.754638671875	303.5229492187502	1198.196899414062	1239.709228515625	358.8699340820315	1374.54541015625	1401.5224609375	217.217712402344	1467.501953125	1257.8037109375	290.3661804199222	1486.734497070312	1196.865112304688	305.9378051757815	1444.156616210938	1211.032958984375	329.9495544433597	1486.454467773438	995.6473999023439	357.8349304199222	1513.6884765625	931.6093139648439	319.6827392578128	1491.723266601562	934.2863769531251	364.9371643066409	1493.993896484375	828.8162841796876	389.8097839355472	1423.059936523438	817.0380859375001	353.5929870605472	1025.192749023438	1395.936157226562	222.4732208251955	935.7660522460936	1243.462890625	267.8858642578127	951.3507080078124	1189.906494140625	305.1630249023439	916.2578124999999	1180.463500976562	267.4548645019533	922.064025878906	969.6996459960938	320.5723571777345	922.3124389648436	916.35107421875	379.3472900390627	918.2402954101561	907.7932739257812	330.351531982422	919.3074340820311	822.6829223632812	373.9257202148439	990.7479858398436	798.5221557617189	337.6659240722658	
995	4.97	2227.56396484375	724.4010620117189	375.0085754394535	207.7456817626952	693.1025390625	328.8957519531251	1188.468505859375	1601.288696289062	356.4798889160159	1124.815063476562	1631.44970703125	311.1729736328127	1259.653686523438	1627.610473632812	313.1398925781252	1196.158447265625	1434.050048828125	117.2804107666018	1205.808471679688	1256.446655273438	96.40837097167991	1228.792846679688	1224.978515625	97.89430999755882	1179.466918945312	1215.198974609375	93.14397430419943	1214.595458984375	1161.221313476562	108.9873580932619	1212.390502929688	1112.81689453125	123.3166809082034	1227.929809570312	1087.744506835938	101.1509170532229	1177.839477539062	1084.194091796875	101.0604400634768	1208.12060546875	1024.779907226562	95.2644958496096	1232.309326171875	964.5875244140626	92.39388275146507	1180.890869140625	962.3513793945314	93.92398834228537	1208.174560546875	905.5786132812501	73.41123199462913	1392.943481445312	684.6057128906251	187.3149414062503	1360.293090820312	630.1764526367189	138.6730194091799	1378.94921875	624.3225708007814	184.9494171142581	1389.219848632812	326.9073791503907	170.6389770507815	1378.284790039062	264.0114440917969	122.7144317626956	1384.471923828125	265.0981140136719	172.7310638427737	1304.1337890625	68.96273040771493	108.3527069091799	1309.090576171875	47.67618179321297	323.9743652343752	1412.2109375	29.69870758056649	279.5671386718753	1023.593017578125	696.1046752929689	167.1664276123049	1010.243286132812	639.7414550781251	222.1580047607424	1029.905517578125	635.4862670898439	176.2699279785158	1020.537353515625	341.9973144531251	150.2905883789064	1018.545654296875	271.7969665527344	184.9664001464846	1031.932250976562	281.0694580078126	138.4747924804689	1124.263427734375	61.50314712524421	111.3256988525393	1102.77978515625	47.05140686035163	325.1885986328127	1005.609313964844	39.32618331909186	268.8012695312502	1196.867309570312	1368.753295898438	303.5195922851565	1198.111083984375	1239.708862304688	358.8787536621096	1374.512084960938	1401.5078125	217.2678527832034	1467.514404296875	1257.765625	290.3999938964847	1486.725219726562	1196.806274414062	305.9332275390628	1444.189086914062	1211.007446289062	329.9978637695315	1486.479248046875	995.6226806640626	357.8966979980472	1513.6943359375	931.5762329101564	319.7445983886722	1491.74462890625	934.2676391601564	365.0106201171878	1494.006469726562	828.7904052734376	389.8970336914065	1423.071411132812	817.0158081054689	353.6944885253909	1025.172119140625	1395.921020507812	222.3785095214846	935.6989746093749	1243.447021484375	267.7807006835939	951.2771606445311	1189.903076171875	305.0700988769533	916.2022094726561	1180.447875976562	267.3502197265627	922.0263671874998	969.6620483398438	320.5287475585939	922.2769165039061	916.3829345703125	379.3705444335939	918.2197265624999	907.7633056640625	330.339324951172	919.3199462890624	822.6812744140625	373.9683532714845	990.7625732421874	798.5149536132814	337.7232666015627	
